<svg id="visual" viewBox="0 0 900 600" width="900" height="600" xmlns="http://www.w3.org/2000/svg" xmlns:xlink="http://www.w3.org/1999/xlink" version="1.1"><rect x="0" y="0" width="900" height="600" fill="#c9d6e0"></rect><path d="M0 337L25 337.7C50 338.3 100 339.7 150 324.5C200 309.3 250 277.7 300 263.2C350 248.7 400 251.3 450 267.2C500 283 550 312 600 311.2C650 310.3 700 279.7 750 273.8C800 268 850 287 875 296.5L900 306L900 0L875 0C850 0 800 0 750 0C700 0 650 0 600 0C550 0 500 0 450 0C400 0 350 0 300 0C250 0 200 0 150 0C100 0 50 0 25 0L0 0Z" fill="#c9d4e5" stroke-linecap="round" stroke-linejoin="miter"></path></svg>